<mxfile host="app.diagrams.net" modified="2023-05-10T13:54:17.059Z" agent="Mozilla/5.0 (Windows NT 10.0; Win64; x64) AppleWebKit/537.36 (KHTML, like Gecko) Chrome/113.0.0.0 Safari/537.36" etag="8vXY-a6OvcMefaEnsoYr" version="21.2.9" type="device">
  <diagram id="zPgXatKTS2_6QT1FmWf5" name="Page-1">
    <mxGraphModel dx="1163" dy="1759" grid="1" gridSize="10" guides="1" tooltips="1" connect="1" arrows="1" fold="1" page="1" pageScale="1" pageWidth="827" pageHeight="1169" math="0" shadow="0">
      <root>
        <mxCell id="0" />
        <mxCell id="1" parent="0" />
        <mxCell id="9eIiCibBdpAaZQOyNv7R-1" value="Cliente" style="shape=umlActor;verticalLabelPosition=bottom;verticalAlign=top;html=1;outlineConnect=0;labelBackgroundColor=none;labelBorderColor=none;" parent="1" vertex="1">
          <mxGeometry x="113.5" y="-1090" width="30" height="60" as="geometry" />
        </mxCell>
        <mxCell id="9eIiCibBdpAaZQOyNv7R-2" value="Login" style="ellipse;whiteSpace=wrap;html=1;" parent="1" vertex="1">
          <mxGeometry x="410" y="-360" width="64.42" height="60" as="geometry" />
        </mxCell>
        <mxCell id="TzCOTeaegmTVcUWFCO-N-1" value="Visualizzazione calendario visite Museo" style="ellipse;whiteSpace=wrap;html=1;" parent="1" vertex="1">
          <mxGeometry x="240" y="-1100" width="120" height="80" as="geometry" />
        </mxCell>
        <mxCell id="TzCOTeaegmTVcUWFCO-N-3" value="" style="endArrow=none;html=1;rounded=0;entryX=0;entryY=0.5;entryDx=0;entryDy=0;exitX=0.5;exitY=0.5;exitDx=0;exitDy=0;exitPerimeter=0;" parent="1" source="9eIiCibBdpAaZQOyNv7R-1" target="TzCOTeaegmTVcUWFCO-N-1" edge="1">
          <mxGeometry width="50" height="50" relative="1" as="geometry">
            <mxPoint x="390" y="-810" as="sourcePoint" />
            <mxPoint x="440" y="-860" as="targetPoint" />
          </mxGeometry>
        </mxCell>
        <mxCell id="xKOUddJT-T2Vru4NMJ45-1" value="Selezione giorno e fascia oraria" style="ellipse;whiteSpace=wrap;html=1;aspect=fixed;" parent="1" vertex="1">
          <mxGeometry x="440" y="-1160" width="80" height="80" as="geometry" />
        </mxCell>
        <mxCell id="xKOUddJT-T2Vru4NMJ45-2" value="&amp;lt;&amp;lt;extends&amp;gt;&amp;gt;" style="endArrow=open;dashed=1;endFill=0;endSize=12;html=1;rounded=0;exitX=0;exitY=0.5;exitDx=0;exitDy=0;entryX=1;entryY=0;entryDx=0;entryDy=0;" parent="1" source="xKOUddJT-T2Vru4NMJ45-1" target="TzCOTeaegmTVcUWFCO-N-1" edge="1">
          <mxGeometry width="160" relative="1" as="geometry">
            <mxPoint x="358.55" y="-930" as="sourcePoint" />
            <mxPoint x="340" y="-1120" as="targetPoint" />
          </mxGeometry>
        </mxCell>
        <mxCell id="xKOUddJT-T2Vru4NMJ45-3" value="Verifica disponibilitÃ " style="ellipse;whiteSpace=wrap;html=1;" parent="1" vertex="1">
          <mxGeometry x="590" y="-1160" width="80" height="80" as="geometry" />
        </mxCell>
        <mxCell id="xKOUddJT-T2Vru4NMJ45-4" value="&amp;lt;&amp;lt;include&amp;gt;&amp;gt;" style="html=1;verticalAlign=bottom;labelBackgroundColor=none;endArrow=classic;endFill=1;dashed=1;rounded=0;entryX=0;entryY=0.5;entryDx=0;entryDy=0;exitX=1;exitY=0.5;exitDx=0;exitDy=0;" parent="1" source="xKOUddJT-T2Vru4NMJ45-1" target="xKOUddJT-T2Vru4NMJ45-3" edge="1">
          <mxGeometry width="160" relative="1" as="geometry">
            <mxPoint x="520" y="-1140" as="sourcePoint" />
            <mxPoint x="995.24" y="-1220" as="targetPoint" />
          </mxGeometry>
        </mxCell>
        <mxCell id="xKOUddJT-T2Vru4NMJ45-5" value="Visualizzazione turni disponibili" style="ellipse;whiteSpace=wrap;html=1;" parent="1" vertex="1">
          <mxGeometry x="737" y="-1165" width="90" height="90" as="geometry" />
        </mxCell>
        <mxCell id="xKOUddJT-T2Vru4NMJ45-6" value="&amp;lt;&amp;lt;include&amp;gt;&amp;gt;" style="html=1;verticalAlign=bottom;labelBackgroundColor=none;endArrow=classic;endFill=1;dashed=1;rounded=0;entryX=0;entryY=0.5;entryDx=0;entryDy=0;exitX=0;exitY=0.5;exitDx=0;exitDy=0;" parent="1" edge="1" target="xKOUddJT-T2Vru4NMJ45-5">
          <mxGeometry width="160" relative="1" as="geometry">
            <mxPoint x="670" y="-1120" as="sourcePoint" />
            <mxPoint x="1145.24" y="-1220" as="targetPoint" />
          </mxGeometry>
        </mxCell>
        <mxCell id="xKOUddJT-T2Vru4NMJ45-9" value="Visualizzazione catalogo film" style="ellipse;whiteSpace=wrap;html=1;" parent="1" vertex="1">
          <mxGeometry x="320" y="-980" width="90" height="80" as="geometry" />
        </mxCell>
        <mxCell id="xKOUddJT-T2Vru4NMJ45-11" value="Per data di uscita" style="ellipse;whiteSpace=wrap;html=1;aspect=fixed;" parent="1" vertex="1">
          <mxGeometry x="440" y="-1050" width="60" height="60" as="geometry" />
        </mxCell>
        <mxCell id="xKOUddJT-T2Vru4NMJ45-12" value="&amp;lt;&amp;lt;extends&amp;gt;&amp;gt;" style="endArrow=open;dashed=1;endFill=0;endSize=12;html=1;rounded=0;exitX=0;exitY=1;exitDx=0;exitDy=0;entryX=1;entryY=0;entryDx=0;entryDy=0;" parent="1" source="xKOUddJT-T2Vru4NMJ45-11" edge="1">
          <mxGeometry width="160" relative="1" as="geometry">
            <mxPoint x="416.55" y="-810" as="sourcePoint" />
            <mxPoint x="400" y="-968" as="targetPoint" />
          </mxGeometry>
        </mxCell>
        <mxCell id="xKOUddJT-T2Vru4NMJ45-13" value="Per titoli ottenuti" style="ellipse;whiteSpace=wrap;html=1;aspect=fixed;" parent="1" vertex="1">
          <mxGeometry x="500" y="-980" width="60" height="60" as="geometry" />
        </mxCell>
        <mxCell id="xKOUddJT-T2Vru4NMJ45-14" value="&amp;lt;&amp;lt;extends&amp;gt;&amp;gt;" style="endArrow=open;dashed=1;endFill=0;endSize=12;html=1;rounded=0;exitX=0;exitY=0.5;exitDx=0;exitDy=0;entryX=1;entryY=0.5;entryDx=0;entryDy=0;" parent="1" source="xKOUddJT-T2Vru4NMJ45-13" target="xKOUddJT-T2Vru4NMJ45-9" edge="1">
          <mxGeometry width="160" relative="1" as="geometry">
            <mxPoint x="416.55" y="-710" as="sourcePoint" />
            <mxPoint x="400" y="-868" as="targetPoint" />
          </mxGeometry>
        </mxCell>
        <mxCell id="xKOUddJT-T2Vru4NMJ45-17" value="Selezione film" style="ellipse;whiteSpace=wrap;html=1;" parent="1" vertex="1">
          <mxGeometry x="325" y="-850" width="80" height="70" as="geometry" />
        </mxCell>
        <mxCell id="xKOUddJT-T2Vru4NMJ45-18" value="&amp;lt;&amp;lt;include&amp;gt;&amp;gt;" style="html=1;verticalAlign=bottom;labelBackgroundColor=none;endArrow=classic;endFill=1;dashed=1;rounded=0;exitX=0.5;exitY=0;exitDx=0;exitDy=0;entryX=0.5;entryY=0;entryDx=0;entryDy=0;" parent="1" edge="1" target="xKOUddJT-T2Vru4NMJ45-17">
          <mxGeometry width="160" relative="1" as="geometry">
            <mxPoint x="365" y="-900" as="sourcePoint" />
            <mxPoint x="715.24" y="-910" as="targetPoint" />
          </mxGeometry>
        </mxCell>
        <mxCell id="xKOUddJT-T2Vru4NMJ45-19" value="Visualizzazione fasce orarie" style="ellipse;whiteSpace=wrap;html=1;aspect=fixed;" parent="1" vertex="1">
          <mxGeometry x="140" y="-860" width="90" height="90" as="geometry" />
        </mxCell>
        <mxCell id="xKOUddJT-T2Vru4NMJ45-20" value="&amp;lt;&amp;lt;extends&amp;gt;&amp;gt;" style="endArrow=open;dashed=1;endFill=0;endSize=12;html=1;rounded=0;entryX=0;entryY=0.5;entryDx=0;entryDy=0;" parent="1" target="xKOUddJT-T2Vru4NMJ45-17" edge="1">
          <mxGeometry width="160" relative="1" as="geometry">
            <mxPoint x="230" y="-815" as="sourcePoint" />
            <mxPoint x="330" y="-815" as="targetPoint" />
          </mxGeometry>
        </mxCell>
        <mxCell id="xKOUddJT-T2Vru4NMJ45-21" value="Visualizzazione trama" style="ellipse;whiteSpace=wrap;html=1;aspect=fixed;" parent="1" vertex="1">
          <mxGeometry x="500" y="-860" width="90" height="90" as="geometry" />
        </mxCell>
        <mxCell id="xKOUddJT-T2Vru4NMJ45-22" value="&amp;lt;&amp;lt;extends&amp;gt;&amp;gt;" style="endArrow=open;dashed=1;endFill=0;endSize=12;html=1;rounded=0;exitX=0;exitY=0.5;exitDx=0;exitDy=0;entryX=1;entryY=0.5;entryDx=0;entryDy=0;" parent="1" source="xKOUddJT-T2Vru4NMJ45-21" edge="1">
          <mxGeometry width="160" relative="1" as="geometry">
            <mxPoint x="424.55" y="-610" as="sourcePoint" />
            <mxPoint x="405" y="-815" as="targetPoint" />
          </mxGeometry>
        </mxCell>
        <mxCell id="xKOUddJT-T2Vru4NMJ45-23" value="Visualizzazione periodo programmazione" style="ellipse;whiteSpace=wrap;html=1;aspect=fixed;" parent="1" vertex="1">
          <mxGeometry x="500" y="-759.99" width="102" height="102" as="geometry" />
        </mxCell>
        <mxCell id="xKOUddJT-T2Vru4NMJ45-24" value="&amp;lt;&amp;lt;extends&amp;gt;&amp;gt;" style="endArrow=open;dashed=1;endFill=0;endSize=12;html=1;rounded=0;entryX=1;entryY=1;entryDx=0;entryDy=0;exitX=0;exitY=0;exitDx=0;exitDy=0;" parent="1" source="xKOUddJT-T2Vru4NMJ45-23" target="xKOUddJT-T2Vru4NMJ45-17" edge="1">
          <mxGeometry width="160" relative="1" as="geometry">
            <mxPoint x="500" y="-750" as="sourcePoint" />
            <mxPoint x="397.52" y="-780" as="targetPoint" />
          </mxGeometry>
        </mxCell>
        <mxCell id="xKOUddJT-T2Vru4NMJ45-26" value="Visualizzazione prezzo standard" style="ellipse;whiteSpace=wrap;html=1;aspect=fixed;" parent="1" vertex="1">
          <mxGeometry x="140" y="-753.99" width="90" height="90" as="geometry" />
        </mxCell>
        <mxCell id="xKOUddJT-T2Vru4NMJ45-27" value="&amp;lt;&amp;lt;extends&amp;gt;&amp;gt;" style="endArrow=open;dashed=1;endFill=0;endSize=12;html=1;rounded=0;exitX=1;exitY=0;exitDx=0;exitDy=0;entryX=0.036;entryY=0.781;entryDx=0;entryDy=0;entryPerimeter=0;" parent="1" source="xKOUddJT-T2Vru4NMJ45-26" target="xKOUddJT-T2Vru4NMJ45-17" edge="1">
          <mxGeometry width="160" relative="1" as="geometry">
            <mxPoint x="76.55000000000001" y="-503.99" as="sourcePoint" />
            <mxPoint x="295.2157287525381" y="-790.2512626584708" as="targetPoint" />
          </mxGeometry>
        </mxCell>
        <mxCell id="xKOUddJT-T2Vru4NMJ45-28" value="Scelta dettagli prenotazione" style="ellipse;whiteSpace=wrap;html=1;" parent="1" vertex="1">
          <mxGeometry x="320" y="-737.99" width="90" height="80" as="geometry" />
        </mxCell>
        <mxCell id="xKOUddJT-T2Vru4NMJ45-29" value="&amp;lt;&amp;lt;include&amp;gt;&amp;gt;" style="html=1;verticalAlign=bottom;labelBackgroundColor=none;endArrow=classic;endFill=1;dashed=1;rounded=0;exitX=0.5;exitY=1;exitDx=0;exitDy=0;entryX=0.5;entryY=0;entryDx=0;entryDy=0;" parent="1" source="xKOUddJT-T2Vru4NMJ45-17" target="xKOUddJT-T2Vru4NMJ45-28" edge="1">
          <mxGeometry x="-0.0478" width="160" relative="1" as="geometry">
            <mxPoint x="375" y="-610" as="sourcePoint" />
            <mxPoint x="375" y="-560" as="targetPoint" />
            <mxPoint as="offset" />
          </mxGeometry>
        </mxCell>
        <mxCell id="xKOUddJT-T2Vru4NMJ45-30" value="Scelta data" style="ellipse;whiteSpace=wrap;html=1;aspect=fixed;" parent="1" vertex="1">
          <mxGeometry x="495" y="-629" width="69" height="69" as="geometry" />
        </mxCell>
        <mxCell id="xKOUddJT-T2Vru4NMJ45-32" value="&amp;lt;&amp;lt;include&amp;gt;&amp;gt;" style="html=1;verticalAlign=bottom;labelBackgroundColor=none;endArrow=classic;endFill=1;dashed=1;rounded=0;exitX=1;exitY=0.5;exitDx=0;exitDy=0;entryX=0;entryY=0;entryDx=0;entryDy=0;" parent="1" source="xKOUddJT-T2Vru4NMJ45-28" target="xKOUddJT-T2Vru4NMJ45-30" edge="1">
          <mxGeometry x="-0.0801" y="5" width="160" relative="1" as="geometry">
            <mxPoint x="390" y="-610" as="sourcePoint" />
            <mxPoint x="390" y="-568" as="targetPoint" />
            <mxPoint as="offset" />
          </mxGeometry>
        </mxCell>
        <mxCell id="xKOUddJT-T2Vru4NMJ45-33" value="Scelta fascia oraria" style="ellipse;whiteSpace=wrap;html=1;aspect=fixed;" parent="1" vertex="1">
          <mxGeometry x="395" y="-581" width="69" height="69" as="geometry" />
        </mxCell>
        <mxCell id="xKOUddJT-T2Vru4NMJ45-34" value="&amp;lt;&amp;lt;include&amp;gt;&amp;gt;" style="html=1;verticalAlign=bottom;labelBackgroundColor=none;endArrow=classic;endFill=1;dashed=1;rounded=0;exitX=1;exitY=1;exitDx=0;exitDy=0;entryX=0.5;entryY=0;entryDx=0;entryDy=0;" parent="1" source="xKOUddJT-T2Vru4NMJ45-28" target="xKOUddJT-T2Vru4NMJ45-33" edge="1">
          <mxGeometry x="-0.0801" y="5" width="160" relative="1" as="geometry">
            <mxPoint x="310" y="-650" as="sourcePoint" />
            <mxPoint x="290" y="-520" as="targetPoint" />
            <mxPoint as="offset" />
          </mxGeometry>
        </mxCell>
        <mxCell id="xKOUddJT-T2Vru4NMJ45-35" value="Scelta numero posti" style="ellipse;whiteSpace=wrap;html=1;aspect=fixed;" parent="1" vertex="1">
          <mxGeometry x="200" y="-657.99" width="69" height="69" as="geometry" />
        </mxCell>
        <mxCell id="xKOUddJT-T2Vru4NMJ45-36" value="&amp;lt;&amp;lt;include&amp;gt;&amp;gt;" style="html=1;verticalAlign=bottom;labelBackgroundColor=none;endArrow=classic;endFill=1;dashed=1;rounded=0;exitX=0;exitY=0.5;exitDx=0;exitDy=0;entryX=1;entryY=0;entryDx=0;entryDy=0;" parent="1" source="xKOUddJT-T2Vru4NMJ45-28" target="xKOUddJT-T2Vru4NMJ45-35" edge="1">
          <mxGeometry x="-0.0801" y="5" width="160" relative="1" as="geometry">
            <mxPoint x="240" y="-680" as="sourcePoint" />
            <mxPoint x="135" y="-530" as="targetPoint" />
            <mxPoint as="offset" />
          </mxGeometry>
        </mxCell>
        <mxCell id="xKOUddJT-T2Vru4NMJ45-37" value="Verifica disponibilitÃ " style="ellipse;whiteSpace=wrap;html=1;aspect=fixed;" parent="1" vertex="1">
          <mxGeometry x="230" y="-588.99" width="79.99" height="79.99" as="geometry" />
        </mxCell>
        <mxCell id="xKOUddJT-T2Vru4NMJ45-38" value="&amp;lt;&amp;lt;extends&amp;gt;&amp;gt;" style="endArrow=open;dashed=1;endFill=0;endSize=12;html=1;rounded=0;entryX=0;entryY=1;entryDx=0;entryDy=0;exitX=0.71;exitY=0.062;exitDx=0;exitDy=0;exitPerimeter=0;" parent="1" source="xKOUddJT-T2Vru4NMJ45-37" target="xKOUddJT-T2Vru4NMJ45-28" edge="1">
          <mxGeometry width="160" relative="1" as="geometry">
            <mxPoint x="257" y="-510" as="sourcePoint" />
            <mxPoint x="150" y="-550" as="targetPoint" />
          </mxGeometry>
        </mxCell>
        <mxCell id="xKOUddJT-T2Vru4NMJ45-39" value="Visualizzazione dettagli prenotazione" style="ellipse;whiteSpace=wrap;html=1;aspect=fixed;" parent="1" vertex="1">
          <mxGeometry x="314" y="-509" width="102" height="102" as="geometry" />
        </mxCell>
        <mxCell id="xKOUddJT-T2Vru4NMJ45-41" value="&amp;lt;&amp;lt;include&amp;gt;&amp;gt;" style="html=1;verticalAlign=bottom;labelBackgroundColor=none;endArrow=classic;endFill=1;dashed=1;rounded=0;exitX=0.5;exitY=1;exitDx=0;exitDy=0;entryX=0.5;entryY=0;entryDx=0;entryDy=0;" parent="1" source="xKOUddJT-T2Vru4NMJ45-28" target="xKOUddJT-T2Vru4NMJ45-39" edge="1">
          <mxGeometry x="-0.0476" width="160" relative="1" as="geometry">
            <mxPoint x="330" y="-470" as="sourcePoint" />
            <mxPoint x="375" y="-728" as="targetPoint" />
            <mxPoint as="offset" />
          </mxGeometry>
        </mxCell>
        <mxCell id="xKOUddJT-T2Vru4NMJ45-42" value="Visualizzazione eventuali turni disponibili" style="ellipse;whiteSpace=wrap;html=1;aspect=fixed;" parent="1" vertex="1">
          <mxGeometry x="61.5" y="-596.99" width="96" height="96" as="geometry" />
        </mxCell>
        <mxCell id="xKOUddJT-T2Vru4NMJ45-43" value="&amp;lt;&amp;lt;include&amp;gt;&amp;gt;" style="html=1;verticalAlign=bottom;labelBackgroundColor=none;endArrow=classic;endFill=1;dashed=1;rounded=0;exitX=0;exitY=0.5;exitDx=0;exitDy=0;entryX=1;entryY=0.5;entryDx=0;entryDy=0;" parent="1" source="xKOUddJT-T2Vru4NMJ45-37" target="xKOUddJT-T2Vru4NMJ45-42" edge="1">
          <mxGeometry x="-0.1022" y="-7" width="160" relative="1" as="geometry">
            <mxPoint x="30" y="-545" as="sourcePoint" />
            <mxPoint x="10" y="-415" as="targetPoint" />
            <mxPoint as="offset" />
          </mxGeometry>
        </mxCell>
        <mxCell id="xKOUddJT-T2Vru4NMJ45-53" value="Registrazione" style="ellipse;whiteSpace=wrap;html=1;aspect=fixed;" parent="1" vertex="1">
          <mxGeometry x="570" y="-366" width="82" height="82" as="geometry" />
        </mxCell>
        <mxCell id="xKOUddJT-T2Vru4NMJ45-55" value="Inserimento generalitÃ  e tessera sanitaria" style="ellipse;whiteSpace=wrap;html=1;aspect=fixed;" parent="1" vertex="1">
          <mxGeometry x="242.42" y="-366" width="82" height="82" as="geometry" />
        </mxCell>
        <mxCell id="xKOUddJT-T2Vru4NMJ45-57" value="Applicazione eventuali sconti" style="ellipse;whiteSpace=wrap;html=1;aspect=fixed;" parent="1" vertex="1">
          <mxGeometry x="320" y="-230" width="90" height="90" as="geometry" />
        </mxCell>
        <mxCell id="xKOUddJT-T2Vru4NMJ45-58" value="&amp;lt;&amp;lt;include&amp;gt;&amp;gt;" style="html=1;verticalAlign=bottom;labelBackgroundColor=none;endArrow=classic;endFill=1;dashed=1;rounded=0;exitX=1;exitY=1;exitDx=0;exitDy=0;entryX=0.5;entryY=0;entryDx=0;entryDy=0;" parent="1" source="xKOUddJT-T2Vru4NMJ45-39" target="9eIiCibBdpAaZQOyNv7R-2" edge="1">
          <mxGeometry x="-0.2582" y="1" width="160" relative="1" as="geometry">
            <mxPoint x="469" y="-410" as="sourcePoint" />
            <mxPoint x="424" y="-360" as="targetPoint" />
            <mxPoint as="offset" />
          </mxGeometry>
        </mxCell>
        <mxCell id="xKOUddJT-T2Vru4NMJ45-63" value="" style="endArrow=none;html=1;rounded=0;entryX=0;entryY=0.5;entryDx=0;entryDy=0;exitX=0.5;exitY=0.5;exitDx=0;exitDy=0;exitPerimeter=0;" parent="1" source="9eIiCibBdpAaZQOyNv7R-1" target="xKOUddJT-T2Vru4NMJ45-9" edge="1">
          <mxGeometry width="50" height="50" relative="1" as="geometry">
            <mxPoint x="90" y="-937" as="sourcePoint" />
            <mxPoint x="268" y="-1022" as="targetPoint" />
          </mxGeometry>
        </mxCell>
        <mxCell id="xKOUddJT-T2Vru4NMJ45-65" value="&amp;lt;&amp;lt;include&amp;gt;&amp;gt;" style="html=1;verticalAlign=bottom;labelBackgroundColor=none;endArrow=classic;endFill=1;dashed=1;rounded=0;exitX=0.5;exitY=1;exitDx=0;exitDy=0;entryX=1;entryY=0;entryDx=0;entryDy=0;" parent="1" source="9eIiCibBdpAaZQOyNv7R-2" edge="1" target="xKOUddJT-T2Vru4NMJ45-57">
          <mxGeometry x="-0.0476" width="160" relative="1" as="geometry">
            <mxPoint x="468" y="-300" as="sourcePoint" />
            <mxPoint x="470" y="-246" as="targetPoint" />
            <mxPoint as="offset" />
          </mxGeometry>
        </mxCell>
        <mxCell id="xKOUddJT-T2Vru4NMJ45-68" value="Scelta modalitÃ  di pagamento" style="ellipse;whiteSpace=wrap;html=1;aspect=fixed;" parent="1" vertex="1">
          <mxGeometry x="326" y="-86" width="78" height="78" as="geometry" />
        </mxCell>
        <mxCell id="xKOUddJT-T2Vru4NMJ45-69" value="&amp;lt;&amp;lt;include&amp;gt;&amp;gt;" style="html=1;verticalAlign=bottom;labelBackgroundColor=none;endArrow=classic;endFill=1;dashed=1;rounded=0;exitX=0.5;exitY=1;exitDx=0;exitDy=0;entryX=0.5;entryY=0;entryDx=0;entryDy=0;" parent="1" source="xKOUddJT-T2Vru4NMJ45-57" edge="1" target="xKOUddJT-T2Vru4NMJ45-68">
          <mxGeometry x="-0.0476" width="160" relative="1" as="geometry">
            <mxPoint x="364" y="-130" as="sourcePoint" />
            <mxPoint x="366" y="-76" as="targetPoint" />
            <mxPoint as="offset" />
          </mxGeometry>
        </mxCell>
        <mxCell id="xKOUddJT-T2Vru4NMJ45-70" value="&amp;lt;&amp;lt;include&amp;gt;&amp;gt;" style="html=1;verticalAlign=bottom;labelBackgroundColor=none;endArrow=classic;endFill=1;dashed=1;rounded=0;exitX=0.5;exitY=1;exitDx=0;exitDy=0;entryX=1;entryY=0.5;entryDx=0;entryDy=0;" parent="1" source="xKOUddJT-T2Vru4NMJ45-5" target="xKOUddJT-T2Vru4NMJ45-39" edge="1">
          <mxGeometry x="-0.5745" width="160" relative="1" as="geometry">
            <mxPoint x="750" y="-670" as="sourcePoint" />
            <mxPoint x="567" y="-427" as="targetPoint" />
            <mxPoint as="offset" />
            <Array as="points">
              <mxPoint x="780" y="-460" />
            </Array>
          </mxGeometry>
        </mxCell>
        <mxCell id="xKOUddJT-T2Vru4NMJ45-71" value="&amp;lt;&amp;lt;extends&amp;gt;&amp;gt;" style="endArrow=open;dashed=1;endFill=0;endSize=12;html=1;rounded=0;entryX=0;entryY=1;entryDx=0;entryDy=0;exitX=0.5;exitY=0;exitDx=0;exitDy=0;" parent="1" source="xKOUddJT-T2Vru4NMJ45-55" target="xKOUddJT-T2Vru4NMJ45-39" edge="1">
          <mxGeometry x="-0.3163" y="1" width="160" relative="1" as="geometry">
            <mxPoint x="143.5" y="-240" as="sourcePoint" />
            <mxPoint x="238.5" y="-240" as="targetPoint" />
            <mxPoint as="offset" />
          </mxGeometry>
        </mxCell>
        <mxCell id="xKOUddJT-T2Vru4NMJ45-72" value="&amp;lt;&amp;lt;include&amp;gt;&amp;gt;" style="html=1;verticalAlign=bottom;labelBackgroundColor=none;endArrow=classic;endFill=1;dashed=1;rounded=0;exitX=0.5;exitY=1;exitDx=0;exitDy=0;entryX=0;entryY=0;entryDx=0;entryDy=0;" parent="1" source="xKOUddJT-T2Vru4NMJ45-55" edge="1" target="xKOUddJT-T2Vru4NMJ45-57">
          <mxGeometry x="-0.0476" width="160" relative="1" as="geometry">
            <mxPoint x="365.5" y="-284" as="sourcePoint" />
            <mxPoint x="366.5" y="-240" as="targetPoint" />
            <mxPoint as="offset" />
          </mxGeometry>
        </mxCell>
        <mxCell id="xKOUddJT-T2Vru4NMJ45-73" value="In struttura" style="ellipse;whiteSpace=wrap;html=1;aspect=fixed;" parent="1" vertex="1">
          <mxGeometry x="440.91999999999996" y="31.84" width="58.16" height="58.16" as="geometry" />
        </mxCell>
        <mxCell id="xKOUddJT-T2Vru4NMJ45-74" value="&amp;lt;&amp;lt;extends&amp;gt;&amp;gt;" style="endArrow=open;dashed=1;endFill=0;endSize=12;html=1;rounded=0;entryX=1;entryY=1;entryDx=0;entryDy=0;exitX=0.5;exitY=0;exitDx=0;exitDy=0;" parent="1" source="xKOUddJT-T2Vru4NMJ45-73" target="xKOUddJT-T2Vru4NMJ45-68" edge="1">
          <mxGeometry x="-0.3163" y="1" width="160" relative="1" as="geometry">
            <mxPoint x="35.86" y="147.84" as="sourcePoint" />
            <mxPoint x="360.0028355337259" y="-8.002835533725902" as="targetPoint" />
            <mxPoint as="offset" />
          </mxGeometry>
        </mxCell>
        <mxCell id="xKOUddJT-T2Vru4NMJ45-77" value="Online" style="ellipse;whiteSpace=wrap;html=1;aspect=fixed;" parent="1" vertex="1">
          <mxGeometry x="250" y="31.84" width="58.16" height="58.16" as="geometry" />
        </mxCell>
        <mxCell id="xKOUddJT-T2Vru4NMJ45-78" value="&amp;lt;&amp;lt;extends&amp;gt;&amp;gt;" style="endArrow=open;dashed=1;endFill=0;endSize=12;html=1;rounded=0;entryX=0;entryY=1;entryDx=0;entryDy=0;exitX=0.5;exitY=0;exitDx=0;exitDy=0;" parent="1" source="xKOUddJT-T2Vru4NMJ45-77" target="xKOUddJT-T2Vru4NMJ45-68" edge="1">
          <mxGeometry x="-0.3163" y="1" width="160" relative="1" as="geometry">
            <mxPoint x="45.86" y="157.84" as="sourcePoint" />
            <mxPoint x="347" y="-9" as="targetPoint" />
            <mxPoint as="offset" />
          </mxGeometry>
        </mxCell>
        <mxCell id="xKOUddJT-T2Vru4NMJ45-79" value="Rilascio biglietto e ricevuta" style="ellipse;whiteSpace=wrap;html=1;aspect=fixed;" parent="1" vertex="1">
          <mxGeometry x="240" y="313.92" width="72.08" height="72.08" as="geometry" />
        </mxCell>
        <mxCell id="xKOUddJT-T2Vru4NMJ45-80" value="&amp;lt;&amp;lt;include&amp;gt;&amp;gt;" style="html=1;verticalAlign=bottom;labelBackgroundColor=none;endArrow=classic;endFill=1;dashed=1;rounded=0;exitX=0.5;exitY=0;exitDx=0;exitDy=0;entryX=0.5;entryY=0;entryDx=0;entryDy=0;" parent="1" edge="1" target="xKOUddJT-T2Vru4NMJ45-79">
          <mxGeometry x="-0.4989" y="1" width="160" relative="1" as="geometry">
            <mxPoint x="278" y="90" as="sourcePoint" />
            <mxPoint x="280" y="144" as="targetPoint" />
            <mxPoint as="offset" />
          </mxGeometry>
        </mxCell>
        <mxCell id="xKOUddJT-T2Vru4NMJ45-81" value="Rilascio ricevuta e prenotazione" style="ellipse;whiteSpace=wrap;html=1;aspect=fixed;" parent="1" vertex="1">
          <mxGeometry x="430" y="320" width="80" height="80" as="geometry" />
        </mxCell>
        <mxCell id="xKOUddJT-T2Vru4NMJ45-82" value="&amp;lt;&amp;lt;include&amp;gt;&amp;gt;" style="html=1;verticalAlign=bottom;labelBackgroundColor=none;endArrow=classic;endFill=1;dashed=1;rounded=0;exitX=0.5;exitY=1;exitDx=0;exitDy=0;entryX=0.5;entryY=0;entryDx=0;entryDy=0;" parent="1" source="xKOUddJT-T2Vru4NMJ45-73" target="xKOUddJT-T2Vru4NMJ45-81" edge="1">
          <mxGeometry x="-0.4989" y="1" width="160" relative="1" as="geometry">
            <mxPoint x="288" y="100" as="sourcePoint" />
            <mxPoint x="290" y="154" as="targetPoint" />
            <mxPoint as="offset" />
          </mxGeometry>
        </mxCell>
        <mxCell id="xKOUddJT-T2Vru4NMJ45-83" value="Rilascio codice convenzionale bowling" style="ellipse;whiteSpace=wrap;html=1;aspect=fixed;" parent="1" vertex="1">
          <mxGeometry x="334.42" y="420" width="80" height="80" as="geometry" />
        </mxCell>
        <mxCell id="xKOUddJT-T2Vru4NMJ45-84" value="&amp;lt;&amp;lt;include&amp;gt;&amp;gt;" style="html=1;verticalAlign=bottom;labelBackgroundColor=none;endArrow=classic;endFill=1;dashed=1;rounded=0;exitX=1;exitY=1;exitDx=0;exitDy=0;entryX=0;entryY=0;entryDx=0;entryDy=0;" parent="1" source="xKOUddJT-T2Vru4NMJ45-79" target="xKOUddJT-T2Vru4NMJ45-83" edge="1">
          <mxGeometry x="-0.1646" y="-1" width="160" relative="1" as="geometry">
            <mxPoint x="374.42" y="380" as="sourcePoint" />
            <mxPoint x="194.42" y="444" as="targetPoint" />
            <mxPoint as="offset" />
          </mxGeometry>
        </mxCell>
        <mxCell id="xKOUddJT-T2Vru4NMJ45-86" value="&amp;lt;&amp;lt;include&amp;gt;&amp;gt;" style="html=1;verticalAlign=bottom;labelBackgroundColor=none;endArrow=classic;endFill=1;dashed=1;rounded=0;exitX=0;exitY=1;exitDx=0;exitDy=0;" parent="1" source="xKOUddJT-T2Vru4NMJ45-81" target="xKOUddJT-T2Vru4NMJ45-83" edge="1">
          <mxGeometry x="-0.1828" y="6" width="160" relative="1" as="geometry">
            <mxPoint x="511.41999999999996" y="440" as="sourcePoint" />
            <mxPoint x="605.42" y="474" as="targetPoint" />
            <mxPoint as="offset" />
          </mxGeometry>
        </mxCell>
        <mxCell id="xKOUddJT-T2Vru4NMJ45-89" value="Memorizzazione prenotazione" style="ellipse;whiteSpace=wrap;html=1;aspect=fixed;" parent="1" vertex="1">
          <mxGeometry x="330.42" y="100" width="90" height="90" as="geometry" />
        </mxCell>
        <mxCell id="xKOUddJT-T2Vru4NMJ45-90" value="&amp;lt;&amp;lt;include&amp;gt;&amp;gt;" style="html=1;verticalAlign=bottom;labelBackgroundColor=none;endArrow=classic;endFill=1;dashed=1;rounded=0;exitX=1;exitY=1;exitDx=0;exitDy=0;entryX=0;entryY=0;entryDx=0;entryDy=0;" parent="1" source="xKOUddJT-T2Vru4NMJ45-77" target="xKOUddJT-T2Vru4NMJ45-89" edge="1">
          <mxGeometry x="0.0581" y="-1" width="160" relative="1" as="geometry">
            <mxPoint x="370" y="10" as="sourcePoint" />
            <mxPoint x="372" y="64" as="targetPoint" />
            <mxPoint as="offset" />
          </mxGeometry>
        </mxCell>
        <mxCell id="xKOUddJT-T2Vru4NMJ45-92" value="&amp;lt;&amp;lt;include&amp;gt;&amp;gt;" style="html=1;verticalAlign=bottom;labelBackgroundColor=none;endArrow=classic;endFill=1;dashed=1;rounded=0;exitX=0;exitY=1;exitDx=0;exitDy=0;entryX=1;entryY=0;entryDx=0;entryDy=0;" parent="1" source="xKOUddJT-T2Vru4NMJ45-73" target="xKOUddJT-T2Vru4NMJ45-89" edge="1">
          <mxGeometry x="0.0458" y="2" width="160" relative="1" as="geometry">
            <mxPoint x="310" y="91" as="sourcePoint" />
            <mxPoint x="353" y="120" as="targetPoint" />
            <mxPoint as="offset" />
          </mxGeometry>
        </mxCell>
        <mxCell id="xKOUddJT-T2Vru4NMJ45-93" value="&amp;lt;&amp;lt;include&amp;gt;&amp;gt;" style="html=1;verticalAlign=bottom;labelBackgroundColor=none;endArrow=classic;endFill=1;dashed=1;rounded=0;entryX=0.5;entryY=0;entryDx=0;entryDy=0;exitX=0.5;exitY=1;exitDx=0;exitDy=0;" parent="1" source="xKOUddJT-T2Vru4NMJ45-89" target="xKOUddJT-T2Vru4NMJ45-94" edge="1">
          <mxGeometry x="-0.0001" y="-1" width="160" relative="1" as="geometry">
            <mxPoint x="310" y="91" as="sourcePoint" />
            <mxPoint x="375" y="260" as="targetPoint" />
            <mxPoint as="offset" />
            <Array as="points">
              <mxPoint x="375" y="240" />
            </Array>
          </mxGeometry>
        </mxCell>
        <mxCell id="xKOUddJT-T2Vru4NMJ45-94" value="Decremento posti disponibili&amp;nbsp;" style="ellipse;whiteSpace=wrap;html=1;aspect=fixed;" parent="1" vertex="1">
          <mxGeometry x="334.42" y="260" width="80" height="80" as="geometry" />
        </mxCell>
        <mxCell id="3VHgC0ghpLNHY-2LBVUi-2" value="&amp;lt;&amp;lt;extends&amp;gt;&amp;gt;" style="endArrow=open;dashed=1;endFill=0;endSize=12;html=1;rounded=0;exitX=0;exitY=0.5;exitDx=0;exitDy=0;" edge="1" parent="1" source="xKOUddJT-T2Vru4NMJ45-53">
          <mxGeometry x="-0.2" y="-5" width="160" relative="1" as="geometry">
            <mxPoint x="528" y="-360" as="sourcePoint" />
            <mxPoint x="470" y="-325" as="targetPoint" />
            <mxPoint as="offset" />
          </mxGeometry>
        </mxCell>
      </root>
    </mxGraphModel>
  </diagram>
</mxfile>
